<?xml version="1.0" standalone="no"?>
<!DOCTYPE svg PUBLIC "-//W3C//DTD SVG 20010904//EN"
 "http://www.w3.org/TR/2001/REC-SVG-20010904/DTD/svg10.dtd">
<svg version="1.0" xmlns="http://www.w3.org/2000/svg"
 width="150" height="120" viewBox="0 0 400 200"
 preserveAspectRatio="xMidYMid meet">

<g transform="translate(0.000000,272.000000) scale(0.100000,-0.100000)"
fill="#000000" stroke="none">
<path d="M2427 2468 l-228 -132 38 -23 c21 -13 125 -73 231 -134 l192 -111
178 103 c97 56 201 116 229 133 29 16 50 33 45 37 -11 11 -444 259 -451 259
-3 0 -109 -59 -234 -132z"/>
<path d="M2055 2255 c-49 -30 -147 -87 -217 -127 -71 -40 -128 -75 -128 -78 0
-3 102 -65 226 -138 l226 -134 187 108 c102 59 203 117 223 128 43 24 48 40
16 57 -13 6 -111 63 -219 125 -107 63 -202 114 -210 113 -8 -1 -54 -25 -104
-54z"/>
<path d="M2905 2172 l-220 -127 -3 -260 c-1 -142 2 -263 6 -267 5 -5 106 47
230 119 l221 128 1 268 c0 147 -3 267 -7 266 -5 0 -107 -57 -228 -127z"/>
<path d="M1682 1749 l3 -271 220 -129 c121 -70 223 -128 228 -129 4 0 6 120 5
267 l-3 267 -220 132 c-121 73 -223 133 -228 133 -4 1 -6 -121 -5 -270z"/>
<path d="M2187 1713 c-4 -3 -7 -122 -7 -264 l0 -257 226 -131 c124 -72 227
-131 230 -131 2 0 4 120 4 268 l-1 267 -156 90 c-262 150 -290 165 -296 158z"/>
<path d="M3020 1658 c-58 -33 -158 -92 -222 -130 l-118 -69 0 -264 c0 -146 3
-265 7 -265 4 0 52 27 107 59 56 32 155 90 221 128 l120 69 3 267 c1 147 -1
267 -5 267 -5 0 -55 -28 -113 -62z"/>
<path d="M1502 523 l3 -178 30 0 30 0 3 178 2 177 -35 0 -35 0 2 -177z"/>
<path d="M1632 523 l3 -178 30 0 30 0 3 178 2 177 -35 0 -35 0 2 -177z"/>
<path d="M1189 664 c-24 -28 -177 -309 -172 -316 2 -5 18 -8 34 -8 34 0 57 31
129 179 27 55 50 90 58 89 7 -2 44 -61 81 -133 67 -127 69 -130 105 -133 20
-2 36 0 36 4 0 15 -152 289 -173 312 -24 26 -78 30 -98 6z"/>
<path d="M1843 669 c-53 -15 -63 -48 -63 -199 l0 -131 33 3 32 3 3 119 c1 67
7 126 14 133 8 9 45 13 139 13 l129 0 0 35 0 35 -127 -1 c-71 0 -143 -5 -160
-10z"/>
<path d="M2924 674 c-12 -3 -32 -16 -45 -30 -21 -22 -24 -37 -27 -117 -2 -51
1 -105 7 -120 l11 -28 28 22 c26 22 27 27 24 95 -6 111 -3 114 126 114 98 0
110 2 137 24 17 13 26 28 22 33 -9 9 -247 14 -283 7z"/>
<path d="M3212 617 c-19 -20 -22 -35 -22 -103 0 -49 -5 -85 -12 -92 -8 -8 -49
-12 -117 -12 -97 -1 -109 -3 -136 -25 -27 -23 -28 -25 -10 -32 33 -13 257 -9
291 5 44 19 54 49 54 157 0 129 -8 145 -48 102z"/>
<path d="M2221 600 c-61 -9 -71 -28 -71 -127 0 -68 3 -86 19 -102 25 -25 108
-35 215 -28 71 5 83 9 103 32 19 22 23 38 23 99 0 90 -15 114 -80 127 -52 10
-146 10 -209 -1z m203 -56 c12 -5 16 -21 16 -69 0 -75 1 -75 -120 -75 -100 0
-110 7 -110 75 0 68 10 75 110 75 48 0 95 -3 104 -6z"/>
<path d="M2601 600 c-64 -10 -71 -25 -71 -152 l0 -108 29 0 29 0 4 95 c2 71 7
98 18 105 8 5 50 10 93 10 l77 0 0 30 0 30 -67 -1 c-38 -1 -88 -5 -112 -9z"/>
<path d="M3357 601 c-65 -14 -72 -27 -72 -149 l0 -107 30 0 30 0 5 93 c4 67 9
95 20 102 23 14 173 12 193 -2 13 -10 17 -33 19 -103 l3 -90 30 0 30 0 3 80
c6 160 -7 175 -155 180 -54 2 -115 0 -136 -4z"/>
<path d="M3748 603 c-58 -7 -78 -40 -78 -129 0 -63 3 -77 24 -101 l24 -28 139
0 138 0 3 28 3 27 -115 0 c-63 0 -121 3 -130 6 -9 3 -16 17 -16 30 l0 24 129
0 c122 0 130 1 136 20 9 29 -4 96 -21 111 -15 12 -169 20 -236 12z m192 -78
l0 -25 -100 0 c-90 0 -100 2 -100 18 0 10 3 22 7 25 3 4 48 7 100 7 93 0 93 0
93 -25z"/>
<path d="M1880 510 l0 -30 126 0 125 0 -3 28 -3 27 -122 3 -123 3 0 -31z"/>
</g>
</svg>
